<?xml version="1.0" encoding="UTF-8"?><svg id="a" xmlns="http://www.w3.org/2000/svg" viewBox="0 0 223.99 115.93"><defs><style>.b,.c{fill:#0056ff;}.c{stroke:#0056ff;stroke-miterlimit:10;}</style></defs><g><path class="c" d="M132.69,43.96h-17.95l-3.24,8.98h-10.68L118.77,6.63h10.74l17.95,46.3h-11.53l-3.24-8.98Zm-3.18-8.98l-5.79-16.13-5.79,16.13h11.59Z"/><path class="c" d="M162.46,6.63V43.78h23.12v9.15h-33.46V6.63h10.34Z"/></g><g><path class="c" d="M66.78,62.41c3.24,1.36,5.94,3.22,8.12,5.57,2.18,2.35,3.72,4.98,4.63,7.9h-11.36c-1.02-1.78-2.59-3.23-4.69-4.35-2.1-1.12-4.52-1.68-7.24-1.68s-5.26,.64-7.5,1.9c-2.24,1.27-3.99,3.03-5.25,5.28-1.27,2.25-1.9,4.8-1.9,7.64s.63,5.41,1.9,7.7c1.27,2.29,3.02,4.08,5.25,5.37,2.23,1.29,4.73,1.93,7.5,1.93,2.31,0,4.41-.42,6.31-1.25,1.89-.83,3.44-1.94,4.63-3.32s1.98-2.85,2.36-4.4h-14.15v-8.75h25.16v2.73c0,4.62-1.07,8.78-3.21,12.47s-5.08,6.59-8.81,8.69-7.91,3.15-12.53,3.15-8.93-1.05-12.7-3.15c-3.77-2.1-6.72-5-8.86-8.69-2.14-3.69-3.21-7.85-3.21-12.47s1.07-8.78,3.21-12.47c2.14-3.69,5.09-6.59,8.86-8.69,3.77-2.1,8-3.15,12.7-3.15,3.94,0,7.53,.68,10.77,2.05Z"/><path class="c" d="M111.39,98.88h-17.95l-3.24,8.98h-10.68l17.95-46.3h10.74l17.95,46.3h-11.53l-3.24-8.98Zm-3.18-8.98l-5.79-16.13-5.79,16.13h11.59Z"/><path class="c" d="M141.16,61.56v37.15h23.12v9.15h-33.46V61.56h10.34Z"/></g><polygon class="b" points="213.46 0 168.51 115.93 179.03 115.93 223.99 0 213.46 0"/><polygon class="b" points="44.96 0 0 115.93 10.52 115.93 55.48 0 44.96 0"/></svg>